HIERARCHY
ROOT root
{
	OFFSET	0	13.1	24.9
	CHANNELS 6  Xposition Yposition Zposition Xrotation Yrotation Zrotation
	JOINT spine_1
	{
		OFFSET	0	9.99999	0
		CHANNELS 3  Xrotation Yrotation Zrotation
		JOINT spine_2
		{
			OFFSET	0	112	-10
			CHANNELS 3  Xrotation Yrotation Zrotation
			JOINT spine_3
			{
				OFFSET	0	206.5	19.3
				CHANNELS 3  Xrotation Yrotation Zrotation
				JOINT spine_4
				{
					OFFSET	0	110.4	14.6
					CHANNELS 3  Xrotation Yrotation Zrotation
					JOINT neck_1
					{
						OFFSET	0	71.8	-50.3
						CHANNELS 3  Xrotation Yrotation Zrotation
						JOINT neck_2
						{
							OFFSET	0	86.2	-25.8
							CHANNELS 3  Xrotation Yrotation Zrotation
							JOINT head_ee
							{
								OFFSET	0	179.8	-8.7
								CHANNELS 3  Xrotation Yrotation Zrotation
								End Site
								{
									OFFSET	1	0	0
								}
							}
						}
					}
					JOINT left_clavicle
					{
						OFFSET	-43.2	22.4	-70.8
						CHANNELS 3  Xrotation Yrotation Zrotation
						JOINT left_shoulder
						{
							OFFSET	-93.9	-5.79999	48.7
							CHANNELS 3  Xrotation Yrotation Zrotation
							JOINT left_elbow
							{
								OFFSET	-291.4	-30.8	15.2
								CHANNELS 3  Xrotation Yrotation Zrotation
								JOINT left_lowarm_twist
								{
									OFFSET	-110.7	-3.89999	13.6
									CHANNELS 3  Xrotation Yrotation Zrotation
									JOINT left_hand
									{
										OFFSET	-110.7	-3.89999	13.6
										CHANNELS 3  Xrotation Yrotation Zrotation
										JOINT left_ee
										{
											OFFSET	-80.8	-5.10001	12.1
											CHANNELS 3  Xrotation Yrotation Zrotation
											End Site
											{
												OFFSET	1	0	0
											}
										}
									}
								}
							}
						}
					}
					JOINT right_clavicle
					{
						OFFSET	43.2	22.4	-70.8
						CHANNELS 3  Xrotation Yrotation Zrotation
						JOINT right_shoulder
						{
							OFFSET	93.9	-5.79999	48.7
							CHANNELS 3  Xrotation Yrotation Zrotation
							JOINT right_elbow
							{
								OFFSET	291.4	-30.8	15.2
								CHANNELS 3  Xrotation Yrotation Zrotation
								JOINT right_lowarm_twist
								{
									OFFSET	110.7	-3.89999	13.6
									CHANNELS 3  Xrotation Yrotation Zrotation
									JOINT right_hand
									{
										OFFSET	110.7	-3.89999	13.6
										CHANNELS 3  Xrotation Yrotation Zrotation
										JOINT right_ee
										{
											OFFSET	80.8	-5.10001	12.1
											CHANNELS 3  Xrotation Yrotation Zrotation
											End Site
											{
												OFFSET	1	0	0
											}
										}
									}
								}
							}
						}
					}
				}
			}
		}
	}
	JOINT left_hip
	{
		OFFSET	-82.8	-127.5	0.300001
		CHANNELS 3  Xrotation Yrotation Zrotation
		JOINT left_knee
		{
			OFFSET	-28.2	-396.7	2.2
			CHANNELS 3  Xrotation Yrotation Zrotation
			JOINT left_ankle
			{
				OFFSET	-11.7	-411.3	35.4
				CHANNELS 3  Xrotation Yrotation Zrotation
				JOINT left_toes
				{
					OFFSET	0	-60	-88.6
					CHANNELS 3  Xrotation Yrotation Zrotation
					JOINT left_foot_ee
					{
						OFFSET	-22.5	-16.5	-42.2
						CHANNELS 3  Xrotation Yrotation Zrotation
						End Site
						{
							OFFSET	1	0	0
						}
					}
				}
			}
		}
	}
	JOINT right_hip
	{
		OFFSET	82.8	-127.5	0.300001
		CHANNELS 3  Xrotation Yrotation Zrotation
		JOINT right_knee
		{
			OFFSET	28.2	-396.7	2.2
			CHANNELS 3  Xrotation Yrotation Zrotation
			JOINT right_ankle
			{
				OFFSET	11.7	-411.3	35.4
				CHANNELS 3  Xrotation Yrotation Zrotation
				JOINT right_toes
				{
					OFFSET	0	-60	-88.6
					CHANNELS 3  Xrotation Yrotation Zrotation
					JOINT right_foot_ee
					{
						OFFSET	22.5	-16.5	-42.2
						CHANNELS 3  Xrotation Yrotation Zrotation
						End Site
						{
							OFFSET	1	0	0
						}
					}
				}
			}
		}
	}
}
MOTION
Frames: 5
Frame Time: 0.02
1901.77 722.389 -563.197 93.6588 -86.5855 95.8618 -0.136488 0.077683 -1.10779 -0.135817 0.148013 -1.1006 -0.138428 0.378601 -1.04399 -0.139888 0.208982 -1.09067 -1.93602 -3.96987 1.63761 -1.8833 -8.46468 1.20698 -0.0 0.0 -0.0 4.08238 4.17749 8.05744 8.64646 -27.7548 67.8989 1.16838 -30.0603 0.313735 -7.41321 -0.319412 0.89159 1.5753 12.5529 15.2982 -0.0 0.0 -0.0 -2.01637 -11.3311 2.07876 -4.61919 19.4339 -75.2313 0.185063 5.23806 -0.00846522 -0.817274 0.0295123 -0.100198 0.519096 -12.7931 -8.55998 0.0 0.0 0.0 1.77414 27.1505 -8.16021 -13.2584 0.315031 2.00577 40.1295 9.62866 -4.88515 -16.4988 0.0 0.0 -0.0 0.0 -0.0 -3.82167 12.2682 -7.4534 -4.3519 -0.154558 -0.649843 36.2961 -0.514012 4.53905 -24.8596 0.0 0.0 0.0 0.0 0.0 
1910.02 721.04 -563.258 93.302 -86.3455 95.44 -0.111633 0.0741484 -1.07539 -0.111 0.142424 -1.06849 -0.113439 0.365868 -1.01396 -0.114818 0.20115 -1.05901 -1.93769 -4.48963 1.24855 -1.88361 -9.09474 0.729499 -0.0 0.0 -0.0 3.77529 6.42815 7.5795 8.63248 -28.1938 68.057 1.31724 -33.1238 0.391749 -7.43007 -0.320269 0.89357 1.68917 9.47589 14.9675 -0.0 0.0 -0.0 -1.60777 -10.1901 1.56122 -5.066 18.1206 -75.0036 0.182187 5.15712 -0.00820472 -0.561683 0.0201287 -0.068907 0.293589 -16.5495 -8.56194 0.0 0.0 0.0 1.90983 27.2018 -8.60161 -14.9678 0.321627 2.26794 40.6205 9.5372 -4.92717 -16.9587 0.0 0.0 -0.0 0.0 -0.0 -4.83759 12.6493 -7.42774 -4.436 -0.157056 -0.662507 37.0219 -0.472276 4.60697 -25.1707 0.0 0.0 0.0 0.0 0.0 
1916.29 719.844 -560.051 89.0736 -85.868 91.1597 -0.0823583 -0.0643651 -1.04084 -0.0817555 0.00199331 -1.04283 -0.0815117 0.2226 -1.0188 -0.0829555 0.0589152 -1.04117 -2.67369 -4.8106 0.487466 -2.63325 -9.10676 -0.165817 -0.0 0.0 -0.0 3.6638 7.76461 7.43055 7.93799 -28.4983 68.2367 1.43927 -35.4856 0.460535 -7.12877 -0.305039 0.858174 1.88047 6.86704 15.3068 -0.0 0.0 -0.0 -1.3735 -9.2507 1.29723 -5.15392 17.3089 -74.5072 0.189522 5.36354 -0.0088772 -0.407972 0.0145531 -0.0500691 0.086224 -19.4658 -8.39021 0.0 0.0 0.0 1.60453 27.382 -8.86972 -16.0984 0.321692 2.44141 40.489 9.79801 -4.91765 -17.4593 0.0 0.0 -0.0 0.0 -0.0 -5.53616 13.3922 -7.4588 -4.63592 -0.162921 -0.692629 37.5158 -0.505048 4.65214 -25.408 0.0 0.0 0.0 0.0 0.0 
1923.63 720.452 -556.256 89.7544 -85.433 91.7869 -0.228032 -0.0360902 -1.01578 -0.227458 0.0286161 -1.01601 -0.227693 0.245466 -0.986334 -0.229041 0.0866209 -1.01272 -2.72748 -5.01129 0.578272 -2.68301 -9.54457 -0.102925 -0.0 0.0 -0.0 3.29611 9.1924 6.83837 7.51692 -28.6788 68.0548 1.54403 -37.4087 0.522785 -6.90913 -0.294054 0.832322 1.94587 5.0091 15.0598 -0.0 0.0 -0.0 -0.903354 -8.22441 0.61864 -4.34853 16.8516 -74.6923 0.201435 5.69854 -0.0100254 -0.217305 0.0077074 -0.0266818 -0.0392989 -21.5133 -8.40967 0.0 0.0 0.0 1.92492 26.2856 -8.84959 -17.3607 0.31772 2.63504 39.9226 9.69724 -4.86749 -18.0654 0.0 0.0 -0.0 0.0 -0.0 -6.15709 13.3658 -7.70662 -4.83197 -0.168571 -0.722185 37.818 -0.196134 4.68179 -25.5917 0.0 0.0 0.0 0.0 0.0 
1925.8 716.759 -553.154 89.5674 -85.3864 91.4637 -0.351203 -0.0388873 -0.947187 -0.350704 0.0214607 -0.947742 -0.350805 0.225836 -0.920694 -0.351979 0.0776021 -0.944803 -4.665 -4.77882 0.0961059 -4.64501 -8.8422 -0.705235 -0.0 0.0 -0.0 2.96434 9.94996 6.29544 7.08506 -29.4917 67.8504 1.63725 -39.0406 0.58047 -6.17866 -0.258237 0.746052 2.11643 2.90379 15.4277 -0.0 0.0 -0.0 -0.427787 -6.97685 -0.062197 -2.70577 16.3964 -74.5207 0.193345 5.47108 -0.00923816 0.220277 -0.00770922 0.027076 -0.0899264 -23.5261 -8.86594 0.0 0.0 0.0 1.69299 25.0464 -8.94917 -18.0757 0.313578 2.74467 39.7206 10.0763 -4.85242 -18.3788 0.0 0.0 -0.0 0.0 -0.0 -6.60131 13.5913 -7.75775 -4.97414 -0.172604 -0.743631 39.9045 1.11827 4.87687 -25.9232 0.0 0.0 0.0 0.0 0.0 
